<svg width="150" height="30" viewBox="0 0 150 30" fill="none" xmlns="http://www.w3.org/2000/svg">
<g clip-path="url(#clip0_1_2)">
<g clip-path="url(#clip1_1_2)">
<path d="M3.13191 4.30316V24.8994H0V4.30316H3.13191Z" fill="black"/>
<path d="M8.89664 11.9429H11.9287V13.1851C12.3876 12.6991 12.94 12.3101 13.5531 12.0412C14.1662 11.7723 14.8275 11.629 15.4974 11.6199C16.1573 11.583 16.8173 11.6919 17.43 11.9389C18.0426 12.1859 18.5928 12.5648 19.041 13.0485C19.8796 14.1922 20.27 15.6013 20.1391 17.0112V24.9739H17.1195V17.6448C17.197 16.7259 17.011 15.8041 16.5829 14.9864C16.351 14.7152 16.0554 14.5052 15.7223 14.3752C15.3893 14.2451 15.0291 14.1991 14.6738 14.241C14.2617 14.2047 13.8473 14.2774 13.4726 14.452C13.0979 14.6265 12.7762 14.8966 12.5401 15.2348C12.0449 16.2935 11.8342 17.4621 11.9287 18.6261V24.8373H8.89664V11.9429Z" fill="black"/>
<path d="M28.4493 14.7131V24.8994H25.4172V14.7131H24.3441V11.9429H25.4172V6.97395C25.3015 5.75493 25.605 4.53292 26.2781 3.50812C26.6937 3.00967 27.2201 2.61435 27.8157 2.35347C28.4112 2.09258 29.0596 1.97328 29.7095 2.00501C30.4069 2.03647 31.0923 2.19653 31.7309 2.47706V5.54538L31.419 5.38389C30.9273 5.09861 30.3769 4.92867 29.8093 4.887C29.5916 4.86201 29.3714 4.90322 29.1776 5.00522C28.9839 5.10721 28.8256 5.26521 28.7238 5.45843C28.4901 6.15388 28.3968 6.88845 28.4493 7.61992V11.9429H31.7309V14.7504L28.4493 14.7131Z" fill="black"/>
<path d="M34.5634 18.3156C34.5489 17.4206 34.7211 16.5324 35.0691 15.7071C35.417 14.8817 35.9331 14.1372 36.5848 13.5205C37.9159 12.2503 39.6884 11.5412 41.5322 11.5412C43.376 11.5412 45.1486 12.2503 46.4796 13.5205C47.1398 14.1529 47.6622 14.9138 48.0142 15.7558C48.3663 16.5978 48.5405 17.503 48.526 18.415C48.5477 19.3275 48.3793 20.2346 48.0314 21.0791C47.6835 21.9236 47.1636 22.6872 46.5046 23.3218C45.8442 23.9603 45.0628 24.4615 44.2059 24.7964C43.349 25.1312 42.4338 25.2929 41.5135 25.2721C40.5996 25.2958 39.6907 25.1303 38.8444 24.7861C37.9981 24.4418 37.2329 23.9262 36.5973 23.2721C35.9352 22.6288 35.413 21.8568 35.0631 21.0042C34.7132 20.1515 34.5431 19.2364 34.5634 18.3156V18.3156ZM37.6454 18.3156C37.5825 19.4386 37.9581 20.5424 38.6935 21.3963C39.4489 22.1315 40.4633 22.5432 41.5197 22.5432C42.5761 22.5432 43.5906 22.1315 44.3459 21.3963C45.084 20.5629 45.4647 19.4748 45.4066 18.3653C45.4641 17.2596 45.0832 16.1755 44.3459 15.3466C43.9852 14.9624 43.5454 14.6602 43.0565 14.4608C42.5677 14.2614 42.0413 14.1695 41.5135 14.1914C40.9915 14.1716 40.4713 14.2647 39.9889 14.4641C39.5064 14.6636 39.073 14.9646 38.7185 15.3466C38.3488 15.7547 38.0638 16.2314 37.8796 16.7494C37.6955 17.2674 37.6159 17.8166 37.6454 18.3653V18.3156Z" fill="black"/>
</g>
</g>
<defs>
<clipPath id="clip0_1_2">
<rect width="150" height="30" fill="white"/>
</clipPath>
<clipPath id="clip1_1_2">
<rect width="150" height="30" fill="white"/>
</clipPath>
</defs>
</svg>
