<svg width="817" height="37" viewBox="0 0 817 37" fill="none" xmlns="http://www.w3.org/2000/svg">
<g clip-path="url(#clip0_1_36)">
<g clip-path="url(#clip1_1_36)">
<path d="M4.49409 2.70889L11.5657 21.0157L19.0834 1.30448L26.2211 20.9496L33.7883 2.70889H38.2824L26.0393 31.8544L18.9842 12.4241L11.6483 31.8709L0 2.70889H4.49409Z" fill="black"/>
<path d="M39.6538 21.3462C39.6338 20.1542 39.863 18.9711 40.3267 17.8729C40.7905 16.7746 41.4786 15.7854 42.3469 14.9685C44.1048 13.2763 46.4499 12.331 48.8898 12.331C51.3298 12.331 53.6748 13.2763 55.4327 14.9685C56.299 15.8095 56.9825 16.8203 57.4402 17.9376C57.8979 19.0549 58.1201 20.2547 58.0928 21.4618C58.1215 22.6755 57.8985 23.882 57.4379 25.0053C56.9772 26.1285 56.2888 27.1442 55.4162 27.9882C54.5428 28.8389 53.5083 29.5066 52.3734 29.952C51.2385 30.3975 50.026 30.6117 48.8072 30.5822C47.5946 30.6141 46.3885 30.3941 45.2652 29.9363C44.1419 29.4784 43.1257 28.7926 42.2809 27.9221C41.4181 27.0627 40.7401 26.0361 40.2884 24.9054C39.8366 23.7746 39.6207 22.5634 39.6538 21.3462ZM43.7348 21.3462C43.6516 22.8399 44.1489 24.308 45.1227 25.4437C46.1229 26.4216 47.4662 26.9691 48.865 26.9691C50.2639 26.9691 51.6071 26.4216 52.6074 25.4437C53.5846 24.3352 54.0888 22.888 54.0118 21.4122C54.088 19.9416 53.5836 18.4998 52.6074 17.3973C51.6169 16.4136 50.2775 15.8615 48.8816 15.8615C47.4856 15.8615 46.1462 16.4136 45.1557 17.3973C44.6692 17.9414 44.2948 18.576 44.0538 19.2649C43.8128 19.9539 43.71 20.6836 43.7513 21.4122L43.7348 21.3462Z" fill="black"/>
<path d="M64.1565 12.8702H68.1549V14.4233C68.7046 13.7641 69.3642 13.2051 70.1046 12.771C70.7475 12.4597 71.4557 12.3067 72.1699 12.3249C73.3437 12.3613 74.4858 12.7153 75.4743 13.3493L73.6569 17.0173C73.0192 16.5134 72.2384 16.2242 71.4263 16.1912C69.2619 16.1912 68.1219 17.8434 68.1219 21.1479V30.103H64.1565V12.8702Z" fill="black"/>
<path d="M84.1156 0.13139V18.4052L89.7332 12.8702H95.103L87.5688 20.0739L95.6317 30.103H90.4602L84.7599 22.7836L84.1156 23.428V30.0369H80.1172V0.13139H84.1156Z" fill="black"/>
<path d="M649.331 1.05664V28.4508H645.2V1.05664H649.331Z" fill="black"/>
<path d="M656.931 11.2179H660.896V12.8702C661.498 12.2205 662.226 11.7006 663.036 11.3426C663.845 10.9846 664.72 10.796 665.605 10.7883C666.482 10.7379 667.358 10.8821 668.173 11.2106C668.987 11.5392 669.718 12.0438 670.314 12.6884C671.424 14.2096 671.941 16.0837 671.768 17.9591V28.5499H667.753V18.8017C667.864 17.5791 667.617 16.3506 667.043 15.2659C666.739 14.9054 666.351 14.626 665.912 14.4529C665.474 14.2799 664.999 14.2186 664.531 14.2746C663.986 14.2262 663.437 14.323 662.941 14.5551C662.444 14.7872 662.018 15.1465 661.706 15.5964C661.05 17.0045 660.771 18.5587 660.896 20.107V28.3682H656.931V11.2179Z" fill="black"/>
<path d="M688.72 14.1093L685.416 15.8772C684.903 14.8033 684.259 14.225 683.482 14.225C683.133 14.2168 682.794 14.3475 682.541 14.5885C682.418 14.709 682.321 14.8532 682.256 15.0122C682.191 15.1712 682.158 15.3418 682.161 15.5137C682.161 16.1912 682.921 16.8355 684.457 17.4964C686.025 18.0654 687.475 18.9166 688.737 20.0078C689.117 20.4267 689.411 20.9168 689.601 21.45C689.791 21.9832 689.874 22.5488 689.844 23.1141C689.86 23.9062 689.702 24.6922 689.383 25.4171C689.063 26.1421 688.589 26.7883 687.993 27.3107C687.19 28.0042 686.231 28.494 685.198 28.7386C684.166 28.9833 683.089 28.9756 682.06 28.7163C681.031 28.457 680.079 27.9537 679.286 27.2489C678.492 26.5441 677.88 25.6585 677.501 24.6672L680.905 23.0149C681.198 23.6088 681.565 24.1638 681.995 24.6672C682.463 25.1114 683.086 25.3547 683.73 25.3446C685.085 25.3446 685.762 24.7167 685.762 23.4941C685.762 22.7836 685.234 22.1227 684.193 21.4949L682.987 20.9166L681.764 20.3383C680.846 19.9577 680.014 19.3957 679.319 18.6861C678.685 17.9038 678.362 16.9158 678.41 15.9103C678.39 15.2149 678.516 14.523 678.781 13.8797C679.046 13.2364 679.443 12.6559 679.947 12.1762C680.986 11.2083 682.36 10.6812 683.78 10.7057C684.853 10.6987 685.902 11.0214 686.786 11.6302C687.669 12.2389 688.344 13.1043 688.72 14.1093V14.1093Z" fill="black"/>
<path d="M699.36 14.9024V28.4508H695.362V14.9024H693.71V11.2179H695.362V4.84027H699.36V11.2179H702.467V14.952L699.36 14.9024Z" fill="black"/>
<path d="M720.063 11.2179H724.078V28.4508H720.063V26.6499C719.324 27.4005 718.439 27.9914 717.462 28.3862C716.485 28.7809 715.438 28.971 714.385 28.9446C713.331 28.9183 712.295 28.6761 711.339 28.2331C710.383 27.7901 709.529 27.1556 708.828 26.369C707.25 24.5358 706.419 22.1771 706.498 19.76C706.413 17.3849 707.241 15.0674 708.811 13.2832C709.53 12.4489 710.423 11.7837 711.429 11.3352C712.434 10.8868 713.526 10.6662 714.627 10.6892C715.653 10.7022 716.665 10.9294 717.599 11.3561C718.532 11.7829 719.366 12.3999 720.047 13.1676L720.063 11.2179ZM710.579 19.8096C710.516 21.2771 710.992 22.7169 711.918 23.8576C712.328 24.3752 712.85 24.7929 713.446 25.0791C714.041 25.3653 714.694 25.5126 715.354 25.5098C716.028 25.5348 716.699 25.4099 717.319 25.1442C717.939 24.8785 718.493 24.4786 718.94 23.9732C719.877 22.8505 720.366 21.4201 720.311 19.9583C720.367 18.5014 719.878 17.0759 718.94 15.9599C718.516 15.4346 717.98 15.0117 717.371 14.7228C716.761 14.4338 716.095 14.2862 715.42 14.2911C714.76 14.2919 714.109 14.4408 713.514 14.7267C712.919 15.0127 712.396 15.4284 711.984 15.9433C711.065 17.0012 710.565 18.3589 710.579 19.76V19.8096Z" fill="black"/>
<path d="M747.655 28.0543C747.655 28.8639 747.655 29.5908 747.573 30.2022C747.531 30.7572 747.453 31.3091 747.342 31.8544C747.086 33.0803 746.517 34.2189 745.689 35.1589C744.886 36.058 743.892 36.7664 742.78 37.2324C741.668 37.6983 740.466 37.91 739.262 37.852C737.213 37.9299 735.203 37.2737 733.595 36.0015C732.818 35.3417 732.182 34.5319 731.725 33.6206C731.268 32.7094 730.999 31.7153 730.935 30.6978H734.933C735.036 31.4045 735.302 32.0776 735.71 32.664C736.135 33.2107 736.686 33.6465 737.316 33.9342C737.946 34.2219 738.636 34.3529 739.328 34.3162C742.253 34.3162 743.707 32.5153 743.707 28.9299V26.5177C743.01 27.2797 742.163 27.889 741.218 28.3071C740.274 28.7251 739.254 28.9428 738.221 28.9465C737.129 28.9776 736.043 28.7655 735.043 28.3254C734.043 27.8853 733.153 27.2284 732.438 26.402C730.896 24.6037 730.083 22.2932 730.158 19.9252C730.088 17.6011 730.836 15.3261 732.273 13.498C732.984 12.5943 733.897 11.8696 734.939 11.3819C735.98 10.8941 737.121 10.6569 738.271 10.6892C739.3 10.6677 740.321 10.8743 741.261 11.2942C742.201 11.7142 743.036 12.337 743.707 13.118V11.2179H747.705L747.655 28.0543ZM743.822 19.7931C743.892 18.332 743.408 16.8984 742.467 15.7781C742.036 15.2744 741.498 14.8734 740.892 14.6047C740.286 14.336 739.627 14.2062 738.965 14.225C738.279 14.1951 737.595 14.3294 736.972 14.6168C736.348 14.9041 735.802 15.3363 735.379 15.8772C734.549 17.0032 734.13 18.3791 734.19 19.7765C734.129 21.1689 734.549 22.5396 735.379 23.6593C735.805 24.1972 736.351 24.6272 736.974 24.9142C737.597 25.2013 738.279 25.3374 738.965 25.3115C739.658 25.3414 740.348 25.2073 740.98 24.9202C741.611 24.6331 742.166 24.2011 742.6 23.6593C743.433 22.5649 743.864 21.2174 743.822 19.8426V19.7931Z" fill="black"/>
<path d="M754.512 11.2179H758.494V12.771C759.049 12.1109 759.714 11.5519 760.46 11.1188C761.097 10.8076 761.8 10.6546 762.509 10.6727C763.683 10.7098 764.825 11.0638 765.814 11.6971L763.996 15.365C763.358 14.8611 762.578 14.5719 761.766 14.5389C759.585 14.5389 758.461 16.1912 758.461 19.4957V28.4508H754.479L754.512 11.2179Z" fill="black"/>
<path d="M782.419 11.2179H786.467V28.4508H782.452V26.6499C781.712 27.4005 780.827 27.9914 779.85 28.3862C778.874 28.7809 777.826 28.971 776.773 28.9446C775.72 28.9183 774.683 28.6761 773.728 28.2331C772.772 27.7901 771.917 27.1556 771.216 26.369C769.639 24.5358 768.808 22.1771 768.887 19.76C768.807 17.3826 769.64 15.0649 771.216 13.2832C771.935 12.4489 772.829 11.7837 773.834 11.3352C774.839 10.8868 775.932 10.6662 777.032 10.6892C778.058 10.7022 779.07 10.9294 780.004 11.3561C780.937 11.7829 781.771 12.3999 782.452 13.1676L782.419 11.2179ZM772.935 19.8096C772.872 21.2771 773.348 22.7169 774.273 23.8576C774.682 24.3771 775.204 24.7961 775.8 25.0825C776.395 25.3689 777.049 25.5151 777.71 25.5098C778.384 25.5348 779.055 25.4099 779.675 25.1442C780.295 24.8785 780.848 24.4786 781.295 23.9732C782.233 22.8505 782.722 21.4201 782.666 19.9583C782.722 18.5014 782.233 17.0759 781.295 15.9599C780.856 15.4522 780.31 15.0493 779.695 14.7805C779.08 14.5118 778.413 14.3841 777.743 14.4067C777.083 14.4076 776.431 14.5564 775.837 14.8424C775.242 15.1283 774.719 15.5441 774.306 16.059C773.425 17.0915 772.939 18.4029 772.935 19.76V19.8096Z" fill="black"/>
<path d="M793.29 11.2179H797.272V12.8702C797.843 12.2189 798.512 11.6614 799.255 11.2179C799.936 10.8983 800.684 10.7454 801.436 10.7718C802.364 10.7567 803.279 10.9853 804.091 11.4346C804.903 11.884 805.582 12.5385 806.062 13.3328C806.633 12.5186 807.396 11.8584 808.284 11.4115C809.172 10.9646 810.157 10.7448 811.151 10.7718C815.05 10.7718 817 13.1345 817 17.8599V28.5334H812.985V18.8513C813.073 17.6528 812.869 16.4509 812.39 15.3485C812.182 14.9985 811.879 14.7139 811.517 14.527C811.155 14.3401 810.748 14.2583 810.341 14.2911C809.865 14.2587 809.388 14.357 808.963 14.5753C808.538 14.7937 808.181 15.1239 807.929 15.5303C807.346 16.7783 807.09 18.1544 807.186 19.5287V28.4508H803.171V18.9008C803.171 15.8277 802.279 14.2911 800.511 14.2911C800.025 14.2585 799.54 14.358 799.106 14.5791C798.673 14.8002 798.307 15.1346 798.049 15.5468C797.448 16.7838 797.18 18.1564 797.272 19.5287V28.4508H793.29V11.2179Z" fill="black"/>
<path d="M217.468 1.05664V28.4508H213.321V1.05664H217.468Z" fill="black"/>
<path d="M225.101 11.2179H229.116V12.8702C229.724 12.2238 230.455 11.7063 231.267 11.3487C232.079 10.991 232.955 10.8004 233.842 10.7883C234.716 10.7392 235.589 10.8841 236.401 11.2126C237.212 11.5411 237.94 12.0451 238.534 12.6884C239.644 14.2096 240.161 16.0837 239.988 17.9591V28.5499H235.99V18.8017C236.092 17.5796 235.846 16.3535 235.279 15.2659C234.972 14.9052 234.581 14.6259 234.14 14.453C233.698 14.28 233.222 14.2187 232.751 14.2746C232.205 14.2262 231.657 14.323 231.161 14.5551C230.664 14.7872 230.238 15.1465 229.926 15.5964C229.27 17.0045 228.991 18.5587 229.116 20.107V28.3682H225.101V11.2179Z" fill="black"/>
<path d="M250.992 14.9024V28.4508H246.977V14.9024H245.556V11.2179H246.977V4.60896C246.824 2.98759 247.226 1.36225 248.117 -0.000789216C248.667 -0.663754 249.364 -1.18954 250.153 -1.53653C250.942 -1.88353 251.8 -2.0422 252.661 -2C253.584 -1.95816 254.492 -1.74527 255.337 -1.37215V2.70889L254.924 2.49409C254.273 2.11466 253.544 1.88863 252.793 1.8332C252.505 1.79996 252.213 1.85478 251.956 1.99043C251.7 2.12609 251.49 2.33624 251.355 2.59323C251.046 3.51822 250.922 4.49524 250.992 5.46813V11.2179H255.337V14.952L250.992 14.9024Z" fill="black"/>
<path d="M259.088 19.6939C259.069 18.5036 259.297 17.3222 259.757 16.2244C260.218 15.1267 260.902 14.1364 261.764 13.3163C263.527 11.6268 265.874 10.6836 268.316 10.6836C270.757 10.6836 273.104 11.6268 274.867 13.3163C275.741 14.1573 276.433 15.1694 276.899 16.2893C277.365 17.4092 277.596 18.6132 277.576 19.8261C277.605 21.0398 277.382 22.2463 276.922 23.3695C276.461 24.4928 275.772 25.5084 274.9 26.3524C274.025 27.2017 272.991 27.8684 271.856 28.3137C270.721 28.7591 269.509 28.9742 268.291 28.9465C267.081 28.9781 265.877 28.7579 264.757 28.3C263.636 27.8421 262.623 27.1564 261.781 26.2864C260.904 25.4307 260.213 24.404 259.75 23.2699C259.286 22.1359 259.061 20.9187 259.088 19.6939V19.6939ZM263.169 19.6939C263.086 21.1877 263.583 22.6558 264.557 23.7915C265.557 24.7694 266.9 25.3169 268.299 25.3169C269.698 25.3169 271.041 24.7694 272.041 23.7915C273.019 22.683 273.523 21.2358 273.446 19.76C273.522 18.2893 273.018 16.8476 272.041 15.7451C271.564 15.234 270.981 14.8321 270.334 14.5669C269.687 14.3017 268.99 14.1794 268.291 14.2085C267.6 14.1823 266.911 14.306 266.272 14.5713C265.633 14.8365 265.059 15.237 264.59 15.7451C264.1 16.2878 263.723 16.9219 263.479 17.6109C263.235 18.2998 263.13 19.0302 263.169 19.76V19.6939Z" fill="black"/>
<path d="M419.14 2.52714V7.48386C417.102 5.63643 414.472 4.57612 411.722 4.49331C410.387 4.46641 409.062 4.72355 407.834 5.24768C406.607 5.77181 405.504 6.55095 404.601 7.53343C403.65 8.50607 402.902 9.65897 402.403 10.9244C401.904 12.1899 401.662 13.5423 401.693 14.9024C401.664 16.2499 401.906 17.5894 402.406 18.8412C402.906 20.093 403.652 21.2315 404.601 22.1888C405.522 23.1477 406.632 23.9055 407.86 24.4145C409.088 24.9235 410.409 25.1727 411.738 25.1463C413.009 25.1863 414.274 24.9437 415.439 24.4359C416.061 24.1808 416.654 23.8595 417.207 23.4776C417.883 23.0357 418.529 22.55 419.14 22.0236V26.9803C416.876 28.2907 414.305 28.9803 411.689 28.9795C409.833 28.9926 407.993 28.6387 406.275 27.9381C404.557 27.2376 402.994 26.2042 401.677 24.8975C400.359 23.5907 399.313 22.0364 398.598 20.3239C397.884 18.6114 397.515 16.7746 397.513 14.9189C397.487 11.4873 398.722 8.16558 400.982 5.58379C402.321 3.97365 404.01 2.69024 405.919 1.83128C407.829 0.972324 409.91 0.560464 412.003 0.627063C414.509 0.608977 416.975 1.26525 419.14 2.52714V2.52714Z" fill="black"/>
<path d="M424.626 19.6939C424.607 18.5036 424.835 17.3222 425.295 16.2244C425.756 15.1267 426.44 14.1364 427.302 13.3163C429.065 11.6268 431.412 10.6836 433.854 10.6836C436.295 10.6836 438.642 11.6268 440.405 13.3163C441.268 14.1597 441.949 15.1709 442.407 16.2877C442.864 17.4044 443.088 18.603 443.065 19.8096C443.094 21.0233 442.871 22.2298 442.41 23.353C441.949 24.4763 441.261 25.4919 440.388 26.3359C439.514 27.1859 438.48 27.8531 437.345 28.2985C436.21 28.7439 434.998 28.9586 433.779 28.9299C432.569 28.9615 431.366 28.7414 430.245 28.2835C429.124 27.8256 428.111 27.1399 427.269 26.2698C426.404 25.4119 425.723 24.3859 425.268 23.2551C424.813 22.1242 424.595 20.9123 424.626 19.6939V19.6939ZM428.707 19.6939C428.624 21.1877 429.121 22.6558 430.095 23.7915C431.095 24.7694 432.438 25.3169 433.837 25.3169C435.236 25.3169 436.579 24.7694 437.579 23.7915C438.557 22.683 439.061 21.2358 438.984 19.76C439.06 18.2893 438.556 16.8476 437.579 15.7451C436.589 14.7613 435.25 14.2092 433.854 14.2092C432.458 14.2092 431.118 14.7613 430.128 15.7451C429.632 16.2852 429.249 16.9181 428.999 17.6072C428.75 18.2962 428.639 19.0279 428.674 19.76L428.707 19.6939Z" fill="black"/>
<path d="M449.079 11.2179H453.094V12.8702C453.695 12.2205 454.423 11.7006 455.233 11.3426C456.043 10.9846 456.917 10.796 457.803 10.7883C458.679 10.7379 459.556 10.8821 460.37 11.2106C461.184 11.5392 461.916 12.0438 462.512 12.6884C463.622 14.2096 464.139 16.0837 463.966 17.9591V28.5499H459.951V18.8017C460.062 17.5792 459.815 16.3507 459.24 15.2659C458.937 14.9054 458.548 14.626 458.11 14.4529C457.671 14.2799 457.197 14.2186 456.729 14.2746C456.183 14.2262 455.635 14.323 455.138 14.5551C454.642 14.7872 454.216 15.1465 453.904 15.5964C453.248 17.0045 452.969 18.5587 453.094 20.107V28.3682H449.079V11.2179Z" fill="black"/>
<path d="M474.937 14.9024V28.4508H470.889V14.9024H469.236V11.2179H470.889V4.84028H474.871V11.2179H477.977V14.952L474.937 14.9024Z" fill="black"/>
<path d="M495.672 11.2179H499.687V28.4508H495.672V26.6499C494.933 27.4005 494.048 27.9915 493.071 28.3862C492.094 28.7809 491.047 28.971 489.994 28.9446C488.941 28.9183 487.904 28.6761 486.948 28.2331C485.992 27.7901 485.138 27.1556 484.437 26.369C482.864 24.5341 482.039 22.1752 482.124 19.76C482.037 17.3846 482.865 15.0665 484.437 13.2832C485.159 12.4485 486.055 11.7833 487.063 11.3349C488.072 10.8865 489.166 10.666 490.269 10.6892C491.293 10.7025 492.303 10.9298 493.233 11.3567C494.164 11.7835 494.994 12.4004 495.672 13.1676V11.2179ZM486.205 19.8096C486.143 21.2741 486.613 22.7117 487.527 23.8576C487.939 24.3774 488.464 24.7964 489.062 25.0827C489.661 25.3691 490.317 25.5151 490.98 25.5098C491.653 25.5314 492.324 25.4049 492.943 25.1394C493.562 24.874 494.116 24.4759 494.565 23.9732C495.497 22.8481 495.98 21.418 495.92 19.9583C495.98 18.5035 495.497 17.0783 494.565 15.9599C494.126 15.4532 493.579 15.0508 492.964 14.7822C492.35 14.5135 491.683 14.3853 491.013 14.4068C490.351 14.4075 489.697 14.5562 489.099 14.842C488.502 15.1279 487.976 15.5437 487.56 16.059C486.672 17.0884 486.18 18.4006 486.172 19.76L486.205 19.8096Z" fill="black"/>
<path d="M519.96 11.9119V17.2156C519.284 16.3186 518.457 15.5469 517.515 14.9355C516.759 14.4929 515.895 14.2697 515.02 14.2911C514.313 14.2831 513.613 14.4265 512.966 14.7114C512.319 14.9964 511.741 15.4164 511.269 15.9433C510.272 17.0116 509.737 18.4312 509.782 19.8922C509.727 21.3607 510.242 22.7938 511.22 23.8906C511.688 24.4021 512.261 24.807 512.9 25.0778C513.538 25.3486 514.227 25.479 514.921 25.4602C515.809 25.4767 516.686 25.2602 517.465 24.8324C518.425 24.1994 519.269 23.4057 519.96 22.4862V27.7403C518.467 28.5481 516.8 28.9791 515.103 28.996C513.87 29.0309 512.642 28.821 511.491 28.3786C510.339 27.9362 509.287 27.27 508.394 26.4185C507.519 25.5866 506.826 24.5806 506.363 23.4651C505.899 22.3497 505.674 21.1495 505.701 19.9418C505.667 18.7106 505.893 17.4861 506.362 16.3476C506.832 15.2091 507.535 14.1819 508.428 13.3328C509.311 12.4634 510.36 11.78 511.512 11.3231C512.664 10.8662 513.896 10.645 515.136 10.6727C516.822 10.6749 518.481 11.101 519.96 11.9119V11.9119Z" fill="black"/>
<path d="M529.774 14.9024V28.4508H525.776V14.9024H524.124V11.2179H525.776V4.84028H529.774V11.2179H532.881V14.952L529.774 14.9024Z" fill="black"/>
</g>
</g>
<defs>
<clipPath id="clip0_1_36">
<rect width="817" height="37" fill="white"/>
</clipPath>
<clipPath id="clip1_1_36">
<rect width="817" height="39.9016" fill="white" transform="translate(0 -2)"/>
</clipPath>
</defs>
</svg>
