<svg id="Layer_1" data-name="Layer 1" xmlns="http://www.w3.org/2000/svg" viewBox="0 0 494.48 24.15"><defs><style>.cls-1{isolation:isolate;}</style></defs><g class="cls-1"><g class="cls-1"><path d="M2.72,2.85,7,13.93,11.55,2l4.32,11.89L20.45,2.85h2.72L15.76,20.49,11.49,8.73,7.05,20.5,0,2.85Z"/><path d="M24,14.13a5.18,5.18,0,0,1,1.63-3.86,5.71,5.71,0,0,1,7.92,0,5.31,5.31,0,0,1,1.61,3.93,5.32,5.32,0,0,1-1.62,3.95,5.54,5.54,0,0,1-4,1.57,5.31,5.31,0,0,1-3.95-1.61A5.41,5.41,0,0,1,24,14.13Zm2.47,0a3.51,3.51,0,0,0,.84,2.48,3.24,3.24,0,0,0,4.53,0,3.42,3.42,0,0,0,.85-2.44,3.4,3.4,0,0,0-.85-2.43,3.2,3.2,0,0,0-4.51,0A3.36,3.36,0,0,0,26.48,14.17Z"/><path d="M38.83,9h2.42v.94a4.5,4.5,0,0,1,1.18-1,2.71,2.71,0,0,1,1.25-.27,3.93,3.93,0,0,1,2,.62l-1.1,2.22a2.33,2.33,0,0,0-1.35-.5c-1.31,0-2,1-2,3v5.42H38.83Z"/><path d="M50.91,1.29V12.35L54.31,9h3.25L53,13.36l4.88,6.07H54.75L51.3,15l-.39.39v4H48.49V1.29Z"/></g></g><g class="cls-1"><g class="cls-1"><path d="M393,1.85V18.43h-2.5V1.85Z"/><path d="M397.6,8H400v1a3.93,3.93,0,0,1,2.85-1.26,3.6,3.6,0,0,1,2.85,1.15,4.68,4.68,0,0,1,.88,3.19v6.41h-2.43V12.59a3.83,3.83,0,0,0-.43-2.14,1.72,1.72,0,0,0-1.52-.6,1.88,1.88,0,0,0-1.71.8,5.43,5.43,0,0,0-.49,2.73v5H397.6Z"/><path d="M416.84,9.75l-2,1.07c-.31-.65-.7-1-1.17-1a.8.8,0,0,0-.57.22.77.77,0,0,0-.23.56c0,.41.46.8,1.39,1.2a8.27,8.27,0,0,1,2.59,1.52,2.59,2.59,0,0,1,.67,1.88,3.29,3.29,0,0,1-1.12,2.54,4,4,0,0,1-6.35-1.6l2.06-1a4.83,4.83,0,0,0,.66,1,1.49,1.49,0,0,0,1.05.41c.82,0,1.23-.38,1.23-1.12,0-.43-.32-.83-.95-1.21l-.73-.35-.74-.35a4.47,4.47,0,0,1-1.48-1,2.48,2.48,0,0,1-.55-1.68,3,3,0,0,1,.93-2.26,3.32,3.32,0,0,1,2.32-.89A3.17,3.17,0,0,1,416.84,9.75Z"/><path d="M423.28,10.23v8.2h-2.42v-8.2h-1V8h1V4.14h2.42V8h1.88v2.26Z"/><path d="M435.81,8h2.43V18.43h-2.43V17.34a4.66,4.66,0,0,1-6.8-.17,5.84,5.84,0,0,1-1.41-4A5.63,5.63,0,0,1,429,9.25a4.52,4.52,0,0,1,3.52-1.57,4.46,4.46,0,0,1,3.28,1.5Zm-5.74,5.2a3.64,3.64,0,0,0,.81,2.45,2.64,2.64,0,0,0,2.08,1,2.76,2.76,0,0,0,2.17-.93,3.58,3.58,0,0,0,.83-2.43,3.55,3.55,0,0,0-.83-2.42A2.71,2.71,0,0,0,433,9.86a2.67,2.67,0,0,0-2.08,1A3.47,3.47,0,0,0,430.07,13.17Z"/><path d="M452.51,18.19c0,.49,0,.93-.05,1.3a8,8,0,0,1-.14,1,4.38,4.38,0,0,1-1,2,4.9,4.9,0,0,1-3.89,1.63A5.21,5.21,0,0,1,444,23a4.59,4.59,0,0,1-1.61-3.21h2.42a2.79,2.79,0,0,0,.47,1.19,2.6,2.6,0,0,0,2.19,1c1.77,0,2.65-1.09,2.65-3.26V17.26a4.52,4.52,0,0,1-3.32,1.47,4.46,4.46,0,0,1-3.5-1.54,5.74,5.74,0,0,1-1.38-3.92,6,6,0,0,1,1.28-3.89,4.46,4.46,0,0,1,3.63-1.7,4.22,4.22,0,0,1,3.29,1.47V8h2.42Zm-2.32-5a3.52,3.52,0,0,0-.82-2.43,2.69,2.69,0,0,0-2.12-.94,2.61,2.61,0,0,0-2.17,1,3.71,3.71,0,0,0-.72,2.36,3.68,3.68,0,0,0,.72,2.35,2.64,2.64,0,0,0,2.17,1,2.67,2.67,0,0,0,2.2-1A3.63,3.63,0,0,0,450.19,13.22Z"/><path d="M456.66,8h2.41v.94a4.52,4.52,0,0,1,1.19-1,2.67,2.67,0,0,1,1.24-.27,3.94,3.94,0,0,1,2,.62l-1.1,2.22a2.33,2.33,0,0,0-1.35-.5c-1.32,0-2,1-2,3v5.42h-2.41Z"/><path d="M473.55,8H476V18.43h-2.43V17.34a4.66,4.66,0,0,1-6.8-.17,5.84,5.84,0,0,1-1.41-4,5.63,5.63,0,0,1,1.41-3.92,4.52,4.52,0,0,1,3.52-1.57,4.46,4.46,0,0,1,3.28,1.5Zm-5.74,5.2a3.64,3.64,0,0,0,.81,2.45,2.62,2.62,0,0,0,2.08,1,2.76,2.76,0,0,0,2.17-.93,3.58,3.58,0,0,0,.83-2.43,3.55,3.55,0,0,0-.83-2.42,2.72,2.72,0,0,0-2.15-.94,2.67,2.67,0,0,0-2.08,1A3.47,3.47,0,0,0,467.81,13.17Z"/><path d="M480.13,8h2.41v1a5,5,0,0,1,1.2-1,2.87,2.87,0,0,1,1.32-.27,3.21,3.21,0,0,1,2.8,1.55,3.64,3.64,0,0,1,3.08-1.55q3.54,0,3.54,4.29v6.46h-2.43V12.62a4.5,4.5,0,0,0-.36-2.12,1.32,1.32,0,0,0-1.24-.64,1.59,1.59,0,0,0-1.46.75,4.91,4.91,0,0,0-.45,2.42v5.4h-2.43V12.65c0-1.86-.54-2.79-1.61-2.79a1.63,1.63,0,0,0-1.49.76,4.78,4.78,0,0,0-.47,2.41v5.4h-2.41Z"/></g></g><g class="cls-1"><g class="cls-1"><path d="M131.62,1.85V18.43h-2.51V1.85Z"/><path d="M136.24,8h2.43v1a4,4,0,0,1,2.86-1.26,3.59,3.59,0,0,1,2.84,1.15,4.68,4.68,0,0,1,.88,3.19v6.41h-2.42V12.59a3.92,3.92,0,0,0-.43-2.14,1.74,1.74,0,0,0-1.53-.6,1.88,1.88,0,0,0-1.71.8,5.43,5.43,0,0,0-.49,2.73v5h-2.43Z"/><path d="M151.91,10.23v8.2h-2.43v-8.2h-.86V8h.86v-4a4.35,4.35,0,0,1,.69-2.79A3.36,3.36,0,0,1,152.92,0a4.52,4.52,0,0,1,1.62.38V2.85l-.25-.13a3,3,0,0,0-1.29-.4.87.87,0,0,0-.87.46,4.48,4.48,0,0,0-.22,1.74V8h2.63v2.26Z"/><path d="M156.81,13.13a5.21,5.21,0,0,1,1.62-3.86,5.73,5.73,0,0,1,7.93,0A5.35,5.35,0,0,1,168,13.21a5.32,5.32,0,0,1-1.62,3.95,5.56,5.56,0,0,1-4,1.57,5.29,5.29,0,0,1-3.94-1.61A5.41,5.41,0,0,1,156.81,13.13Zm2.47,0a3.51,3.51,0,0,0,.84,2.48,3.24,3.24,0,0,0,4.53,0,3.42,3.42,0,0,0,.85-2.44,3.4,3.4,0,0,0-.85-2.43,2.94,2.94,0,0,0-2.27-.93,2.9,2.9,0,0,0-2.24.93A3.36,3.36,0,0,0,159.28,13.17Z"/></g></g><g class="cls-1"><g class="cls-1"><path d="M253.68,2.74v3a7,7,0,0,0-4.49-1.81,5.7,5.7,0,0,0-4.31,1.84,6.18,6.18,0,0,0-1.76,4.46,6.08,6.08,0,0,0,1.76,4.41,5.83,5.83,0,0,0,4.32,1.79,5.2,5.2,0,0,0,2.24-.43,5.67,5.67,0,0,0,1.07-.58,11.17,11.17,0,0,0,1.17-.88v3a9,9,0,0,1-4.51,1.21,8.52,8.52,0,0,1-8.58-8.51,8.48,8.48,0,0,1,2.1-5.65,8.33,8.33,0,0,1,6.67-3A8.46,8.46,0,0,1,253.68,2.74Z"/><path d="M257,13.13a5.21,5.21,0,0,1,1.62-3.86,5.73,5.73,0,0,1,7.93,0,5.35,5.35,0,0,1,1.61,3.93,5.32,5.32,0,0,1-1.62,3.95,5.55,5.55,0,0,1-4,1.57,5.29,5.29,0,0,1-3.94-1.61A5.41,5.41,0,0,1,257,13.13Zm2.47,0a3.51,3.51,0,0,0,.84,2.48,3.24,3.24,0,0,0,4.53,0,3.42,3.42,0,0,0,.85-2.44,3.4,3.4,0,0,0-.85-2.43,3.2,3.2,0,0,0-4.51,0A3.36,3.36,0,0,0,259.45,13.17Z"/><path d="M271.8,8h2.43v1a3.93,3.93,0,0,1,2.85-1.26,3.6,3.6,0,0,1,2.85,1.15,4.68,4.68,0,0,1,.88,3.19v6.41h-2.43V12.59a3.83,3.83,0,0,0-.43-2.14,1.72,1.72,0,0,0-1.52-.6,1.88,1.88,0,0,0-1.71.8,5.43,5.43,0,0,0-.49,2.73v5H271.8Z"/><path d="M287.45,10.23v8.2H285v-8.2h-1V8h1V4.14h2.41V8h1.88v2.26Z"/><path d="M300,8h2.43V18.43H300V17.34a4.66,4.66,0,0,1-6.8-.17,5.83,5.83,0,0,1-1.4-4,5.62,5.62,0,0,1,1.4-3.92,4.54,4.54,0,0,1,3.53-1.57A4.44,4.44,0,0,1,300,9.18Zm-5.73,5.2a3.68,3.68,0,0,0,.8,2.45,2.64,2.64,0,0,0,2.09,1,2.79,2.79,0,0,0,2.17-.93,3.58,3.58,0,0,0,.82-2.43,3.55,3.55,0,0,0-.82-2.42,2.73,2.73,0,0,0-2.15-.94,2.69,2.69,0,0,0-2.09,1A3.46,3.46,0,0,0,294.25,13.17Z"/><path d="M314.7,8.42v3.21a5.82,5.82,0,0,0-1.48-1.38,2.85,2.85,0,0,0-1.51-.39,3,3,0,0,0-2.27,1,3.35,3.35,0,0,0-.9,2.39,3.44,3.44,0,0,0,.87,2.42,2.93,2.93,0,0,0,2.24.95,3.08,3.08,0,0,0,1.54-.38,6.06,6.06,0,0,0,1.51-1.42V18a6.31,6.31,0,0,1-2.94.76,5.65,5.65,0,0,1-4.06-1.56,5.24,5.24,0,0,1-1.63-3.92,5.32,5.32,0,0,1,1.65-4,5.61,5.61,0,0,1,4.06-1.61A6.09,6.09,0,0,1,314.7,8.42Z"/><path d="M320.64,10.23v8.2h-2.42v-8.2h-1V8h1V4.14h2.42V8h1.88v2.26Z"/></g></g></svg>